<svg xmlns="http://www.w3.org/2000/svg" fill="#077525" viewBox="0 0 24 24" id="Location-Pin-3--Streamline-Flex" height="24" width="24">
  <desc>
    Location Pin 3 Streamline Icon: https://streamlinehq.com
  </desc>
  <g id="location-pin-3--navigation-map-maps-pin-gps-location">
    <path id="Union" fill="#077525" fill-rule="evenodd" d="M11.90508 0c-4.3090971428571425 0 -7.88556 3.3301199999999995 -8.192571428571428 7.628262857142857 -0.14615999999999998 2.0461199999999997 0.31203428571428565 4.1691771428571425 1.6004571428571428 5.861022857142856 1.5325199999999999 2.012331428571428 3.093171428571428 3.3943714285714286 5.53344 5.019171428571428 0.6981257142857142 0.46491428571428567 1.6084971428571426 0.46491428571428567 2.3066228571428566 0 2.4402685714285712 -1.6247999999999998 4.000971428571428 -3.0068399999999995 5.533371428571428 -5.019171428571428 1.288457142857143 -1.6918457142857142 1.746685714285714 -3.8149028571428567 1.6004571428571428 -5.861022857142856C19.979999999999997 3.3301199999999995 16.40345142857143 0 12.094354285714285 0h-0.1892742857142857ZM12 10.446428571428571c1.6457142857142855 0 2.571428571428571 -0.9257142857142857 2.571428571428571 -2.571428571428571s-0.9257142857142857 -2.571428571428571 -2.571428571428571 -2.571428571428571 -2.571428571428571 0.9257142857142857 -2.571428571428571 2.571428571428571 0.9257142857142857 2.571428571428571 2.571428571428571 2.571428571428571ZM9.658611428571428 20.292171428571425c-2.1458571428571425 -1.4288571428571428 -3.717565714285714 -2.7293142857142856 -5.166085714285714 -4.410994285714286 -0.8242971428571428 0.11346857142857142 -1.551822857142857 0.62184 -1.9376742857142855 1.3753371428571428L0.5991651428571428 21.07577142857143c-0.5841142457142857 1.1406857142857143 0.24429942857142856 2.4956571428571426 1.5258634285714283 2.4956571428571426h19.749942857142855c1.2872571428571429 0 2.1152571428571427 -1.3656 1.5200571428571428 -2.5067999999999997l-1.9942285714285712 -3.8249142857142853c-0.38331428571428566 -0.7352399999999999 -1.0930285714285712 -1.23324 -1.8980571428571427 -1.35408 -1.4473714285714285 1.6794514285714284 -3.0182742857142855 2.9790514285714287 -5.162228571428571 4.406537142857142 -1.4174571428571427 0.9437142857142856 -3.2644457142857144 0.9437142857142856 -4.681902857142857 0Z" clip-rule="evenodd" stroke-width="1.7143"></path>
  </g>
</svg>