<svg xmlns="http://www.w3.org/2000/svg" fill="#077525" viewBox="0 0 24 24" id="Sign-At--Streamline-Flex" height="24" width="24">
  <desc>
    Sign At Streamline Icon: https://streamlinehq.com
  </desc>
  <g id="sign-at--mail-email-at-sign-read-address">
    <path id="Union" fill="#077525" fill-rule="evenodd" d="M2.571428571428571 12c0 -3.1919142857142857 0.8937428571428571 -5.50404 2.409137142857143 -7.019434285714285C6.495959999999999 3.4651714285714283 8.808085714285713 2.571428571428571 12 2.571428571428571c3.1919142857142857 0 5.5040571428571425 0.8937428571428571 7.019485714285713 2.409137142857143C20.534742857142856 6.495959999999999 21.428571428571427 8.808085714285713 21.428571428571427 12c0 1.156542857142857 -0.21617142857142854 2.1618171428571427 -0.5748 2.827577142857143 -0.33822857142857143 0.6279085714285714 -0.7145142857142857 0.8326457142857142 -1.1394857142857142 0.8326457142857142 -0.6512571428571429 0 -0.9361714285714285 -0.15395999999999999 -1.0625142857142857 -0.2559428571428571 -0.12994285714285714 -0.10475999999999999 -0.2506285714285714 -0.2823771428571428 -0.3348 -0.6223371428571428 -0.0876 -0.35322857142857145 -0.11245714285714287 -0.7881257142857142 -0.1074857142857143 -1.3011942857142855 0.0015428571428571427 -0.14449714285714285 0.006342857142857143 -0.3163371428571428 0.011485714285714285 -0.49767428571428574v-0.00005142857142857143c0.009771428571428572 -0.34218857142857145 0.0204 -0.7181485714285714 0.010457142857142858 -1.00764 -0.004628571428571429 -1.809205714285714 -0.5208 -3.40284 -1.662497142857143 -4.5445199999999994 -1.1468571428571428 -1.1468399999999999 -2.749782857142857 -1.6625142857142856 -4.569137142857143 -1.6625142857142856 -1.8193714285714284 0 -3.4222971428571425 0.5156742857142858 -4.569137142857143 1.6625142857142856 -1.1468399999999999 1.1468571428571428 -1.6625142857142856 2.749782857142857 -1.6625142857142856 4.569137142857143s0.5156742857142858 3.4222799999999998 1.6625142857142856 4.569137142857143c1.1468399999999999 1.1468057142857142 2.749765714285714 1.662462857142857 4.569137142857143 1.662462857142857 1.7340171428571427 0 3.271422857142857 -0.4683428571428571 4.404737142857143 -1.5052285714285714 0.16957714285714284 0.2430857142857143 0.3775542857142857 0.4734 0.6327257142857142 0.6792857142857143 0.7038857142857143 0.5677714285714285 1.6139999999999999 0.8259428571428571 2.6770285714285715 0.8259428571428571 1.6321714285714284 0 2.755885714285714 -0.9824571428571429 3.4033714285714285 -2.1846514285714287C23.744742857142857 14.88258857142857 24 13.414885714285713 24 12c0 -3.665228571428571 -1.0347428571428572 -6.710245714285714 -3.162342857142857 -8.837708571428571C18.710228571428573 1.0348251428571427 15.665228571428571 0 12 0 8.334771428571429 0 5.289754285714285 1.0348251428571427 3.1622914285714283 3.1622914285714283 1.0348251428571427 5.289754285714285 0 8.334771428571429 0 12c0 3.665228571428571 1.0348251428571427 6.710228571428571 3.1622914285714283 8.837657142857143C5.289754285714285 22.96525714285714 8.334771428571429 24 12 24c1.5484971428571428 0 2.9839714285714285 -0.18377142857142856 4.2886114285714285 -0.5576571428571427 0.6826114285714285 -0.19559999999999997 1.0774457142857143 -0.9073714285714285 0.8818457142857143 -1.5899999999999999 -0.1955657142857143 -0.6826285714285714 -0.9074914285714285 -1.0774285714285712 -1.590102857142857 -0.8819999999999999C14.540297142857142 21.26845714285714 13.347411428571428 21.428571428571427 12 21.428571428571427c-3.1919142857142857 0 -5.50404 -0.8938285714285713 -7.019434285714285 -2.4090857142857143C3.4651714285714283 17.50405714285714 2.571428571428571 15.191914285714285 2.571428571428571 12Zm13.088588571428572 -0.008794285714285715c-0.00001714285714285714 0.004834285714285714 -0.00003428571428571428 0.009685714285714285 0 0.014537142857142856 -0.0010628571428571427 1.3427657142857141 -0.37535999999999997 2.211102857142857 -0.9093600000000001 2.74512 -0.5347885714285714 0.5347714285714286 -1.4048228571428572 0.9093600000000001 -2.7508628571428573 0.9093600000000001s-2.2160914285714286 -0.37458857142857144 -2.7508628571428573 -0.9093600000000001C8.71416 14.216091428571426 8.339571428571428 13.346039999999999 8.339571428571428 12s0.37458857142857144 -2.2160914285714286 0.9093600000000001 -2.7508628571428573c0.5347714285714286 -0.5347714285714286 1.4048228571428572 -0.9093600000000001 2.7508628571428573 -0.9093600000000001s2.2160742857142854 0.37458857142857144 2.7508628571428573 0.9093600000000001c0.5336057142857142 0.5336057142857142 0.9077314285714286 1.4010342857142857 0.9093600000000001 2.7420685714285713Z" clip-rule="evenodd" stroke-width="1.7143"></path>
  </g>
</svg>