<svg xmlns="http://www.w3.org/2000/svg" fill="#077525" viewBox="0 0 24 24" id="Time-Lapse--Streamline-Flex" height="24" width="24">
  <desc>
    Time Lapse Streamline Icon: https://streamlinehq.com
  </desc>
  <g id="time-lapse--time-lapse-mode-photo-picture-image-setting">
    <path id="Union" fill="#077525" fill-rule="evenodd" d="M4.9799999999999995 4.9799999999999995C3.4645714285714284 6.497142857142856 2.571428571428571 8.808 2.571428571428571 12c0 3.192 0.8931428571428571 5.502857142857143 2.4085714285714284 7.02C6.497142857142856 20.535428571428568 8.808 21.428571428571427 12 21.428571428571427c4.054285714285714 0 6.711428571428571 -1.433142857142857 8.129142857142856 -3.850285714285714a1.2857142857142856 1.2857142857142856 0 0 1 2.216571428571428 1.3011428571428572C20.34342857142857 22.294285714285714 16.693714285714282 24 12 24c-3.6651428571428566 0 -6.709714285714286 -1.0354285714285714 -8.837142857142856 -3.162857142857143C1.0354285714285714 18.71142857142857 0 15.665142857142856 0 12c0 -3.6651428571428566 1.0354285714285714 -6.709714285714286 3.162857142857143 -8.837142857142856C5.288571428571428 1.0354285714285714 8.334857142857143 0 12 0h0.010285714285714285c0.5485714285714286 0.005142857142857143 1.9611428571428569 0.05142857142857142 2.8285714285714283 0.24685714285714283a1.2857142857142856 1.2857142857142856 0 1 1 -0.5622857142857143 2.508c-0.5657142857142857 -0.12685714285714284 -1.721142857142857 -0.17828571428571427 -2.2817142857142856 -0.1834285714285714 -3.1885714285714286 0 -5.499428571428571 0.8948571428571428 -7.014857142857142 2.4085714285714284Zm14.06742857142857 -2.9417142857142853a1.2857142857142856 1.2857142857142856 0 0 0 -1.1571428571428573 2.297142857142857c0.828 0.41657142857142854 1.4914285714285713 0.989142857142857 2.0005714285714284 1.7057142857142855a1.2857142857142856 1.2857142857142856 0 0 0 2.0982857142857143 -1.4862857142857142 7.9405714285714275 7.9405714285714275 0 0 0 -2.9417142857142853 -2.5165714285714285Zm2.2114285714285713 11.946857142857143a1.2857142857142856 1.2857142857142856 0 0 0 2.537142857142857 0.4234285714285714A14.639999999999997 14.639999999999997 0 0 0 23.982857142857142 12c0 -0.84 -0.06342857142857142 -1.6457142857142855 -0.18857142857142856 -2.4085714285714284a1.2857142857142856 1.2857142857142856 0 0 0 -2.537142857142857 0.4234285714285714c0.10285714285714284 0.6102857142857142 0.15428571428571428 1.2702857142857142 0.15428571428571428 1.9851428571428569 0 0.7148571428571427 -0.05142857142857142 1.3748571428571428 -0.15428571428571428 1.9851428571428569ZM13.285714285714285 8.142857142857142a1.2857142857142856 1.2857142857142856 0 0 0 -2.571428571428571 0v4.285714285714286c0 0.30857142857142855 0.10971428571428571 0.6034285714285713 0.30857142857142855 0.8365714285714285l3.5348571428571423 4.119428571428571a1.2857142857142856 1.2857142857142856 0 0 0 1.9525714285714284 -1.6748571428571428L13.285714285714285 11.952V8.142857142857142Z" clip-rule="evenodd" stroke-width="1.7143"></path>
  </g>
</svg>