<svg xmlns="http://www.w3.org/2000/svg" fill="#077525" viewBox="0 0 24 24" id="Phone--Streamline-Flex" height="24" width="24">
  <desc>
    Phone Streamline Icon: https://streamlinehq.com
  </desc>
  <g id="phone--android-phone-mobile-device-smartphone-iphone">
    <path id="Intersect" fill="#077525" d="M16.176 1.4845714285714284c1.2257142857142855 -1.0114285714285713 3.051428571428571 -0.8742857142857142 3.9805714285714284 0.4131428571428571 0.3034285714285714 0.41828571428571426 0.6291428571428571 0.8965714285714286 1.2754285714285714 1.7057142857142855a6.543428571428572 6.543428571428572 0 0 1 -0.010285714285714285 8.142857142857142C20.019428571428573 13.486285714285714 18.548571428571428 15.24 16.90285714285714 16.885714285714283c-1.644 1.644 -3.3994285714285715 3.1148571428571428 -5.137714285714285 4.518857142857143a6.541714285714285 6.541714285714285 0 0 1 -8.142857142857142 0.010285714285714285c-0.8537142857142856 -0.6822857142857143 -1.3337142857142856 -1.0028571428571427 -1.7657142857142856 -1.3165714285714285 -1.241142857142857 -0.9017142857142857 -1.4108571428571428 -2.657142857142857 -0.44571428571428573 -3.8519999999999994 0.9051428571428571 -1.1228571428571428 1.9354285714285713 -2.1874285714285713 2.9194285714285715 -3.226285714285714a1.8137142857142856 1.8137142857142856 0 0 1 2.4857142857142853 -0.11657142857142858c0.4542857142857143 0.3874285714285714 0.8125714285714285 0.6788571428571428 1.6285714285714283 1.445142857142857 2.705142857142857 -1.6062857142857143 4.343999999999999 -3.2657142857142856 5.922857142857143 -5.921142857142857 -0.7714285714285714 -0.8211428571428571 -1.0628571428571427 -1.1794285714285713 -1.4537142857142855 -1.6388571428571428a1.8 1.8 0 0 1 0.12000000000000001 -2.475428571428571c1.0199999999999998 -0.9531428571428572 2.0588571428571427 -1.9354285714285713 3.142285714285714 -2.8285714285714283Z" stroke-width="1.7143"></path>
  </g>
</svg>