<svg xmlns="http://www.w3.org/2000/svg" fill="#077525" viewBox="0 0 24 24" id="Moustache--Streamline-Flex" height="24" width="24">
  <desc>
    Moustache Streamline Icon: https://streamlinehq.com
  </desc>
  <g id="moustache--fashion-beauty-moustache-grooming">
    <path id="Union" fill="#077525" fill-rule="evenodd" d="M8.576485714285715 6.428571428571428c-1.9187314285714283 0 -3.0396342857142855 1.1078742857142856 -3.7454914285714285 2.2986 -0.3498342857142857 0.5901428571428571 -0.6059657142857143 1.212222857142857 -0.8136171428571428 1.7427085714285715l-0.09653142857142856 0.24793714285714286c-0.16695428571428572 0.4300457142857143 -0.29290285714285713 0.7544914285714286 -0.41936571428571423 0.965262857142857 -0.18624 0.3104057142857143 -0.40925142857142854 0.4645371428571428 -0.6981257142857142 0.5208514285714285 -0.3151714285714286 0.06142285714285714 -0.7532571428571428 0.014485714285714284 -1.366572 -0.18996 -0.12592799999999998 -0.04198285714285714 -0.2641988571428571 -0.023228571428571425 -0.3744068571428571 0.05076 -0.1102062857142857 0.07398857142857142 -0.17991085714285712 0.19486285714285712 -0.18874114285714286 0.3273085714285714C0.6440417142857142 15.835371428571428 2.84436 18.044914285714285 5.443199999999999 18.564685714285712c2.3664514285714287 0.4733142857142857 5.063314285714285 -0.45171428571428573 6.556834285714285 -3.045788571428571 1.49352 2.5940742857142856 4.190382857142857 3.519102857142857 6.556765714285714 3.045788571428571 2.5988571428571428 -0.5197714285714286 4.799314285714285 -2.7293142857142856 4.569599999999999 -6.172645714285713 -0.008742857142857142 -0.13244571428571428 -0.07851428571428572 -0.25332 -0.18874285714285713 -0.3273085714285714 -0.11022857142857141 -0.07398857142857142 -0.24839999999999998 -0.09274285714285714 -0.3744 -0.05076 -0.6132 0.2044457142857143 -1.0513714285714284 0.25138285714285713 -1.3664571428571428 0.18996 -0.2890285714285714 -0.056314285714285706 -0.5118857142857142 -0.21044571428571426 -0.6982285714285714 -0.5208514285714285 -0.12634285714285715 -0.21077142857142855 -0.25234285714285715 -0.5351999999999999 -0.4193142857142857 -0.9652457142857143l0 -0.00003428571428571428 -0.09651428571428572 -0.24791999999999997c-0.20759999999999998 -0.5304857142857142 -0.4638857142857143 -1.1525657142857142 -0.8136 -1.7427085714285715C18.4632 7.536445714285714 17.3424 6.428571428571428 15.423599999999999 6.428571428571428c-1.4037771428571428 0 -2.3168742857142854 0.5184 -2.9044285714285714 1.162902857142857 -0.21761142857142857 0.2387142857142857 -0.3867085714285714 0.4907485714285714 -0.5191371428571429 0.7306971428571428 -0.13241142857142857 -0.23994857142857143 -0.3015085714285714 -0.4920171428571428 -0.5191371428571429 -0.7307314285714285C10.893342857142857 6.946937142857143 9.980262857142856 6.428571428571428 8.576485714285715 6.428571428571428Z" clip-rule="evenodd" stroke-width="1.7143"></path>
  </g>
</svg>