<svg xmlns="http://www.w3.org/2000/svg" fill="#077525" viewBox="0 0 24 24" id="Fork-Knife--Streamline-Flex" height="24" width="24">
  <desc>
    Fork Knife Streamline Icon: https://streamlinehq.com
  </desc>
  <g id="fork-knife--fork-spoon-knife-food-dine-cook-utensils-eat-restaurant-dining-kitchenware">
    <path id="Union" fill="#077525" fill-rule="evenodd" d="M7.698514285714285 0.20756057142857143c0.39617142857142856 -0.2472612 0.8952685714285714 -0.2602644 1.3037657142857142 -0.033968571428571424 0.4085142857142857 0.2262977142857143 0.6621942857142857 0.6563074285714285 0.6626914285714286 1.1233062857142857L9.67626857142857 11.877257142857141c0.00816 0.06781714285714285 0.01236 0.13685142857142857 0.01236 0.20686285714285713v10.189079999999999c0 0.9468 -0.76752 1.7142857142857142 -1.7142857142857142 1.7142857142857142 -0.946782857142857 0 -1.7142857142857142 -0.7674857142857142 -1.7142857142857142 -1.7142857142857142v-4.442742857142857c-0.5092971428571429 0.0006857142857142857 -1.0027028571428571 -0.028114285714285717 -1.4980285714285713 -0.09394285714285713 -1.1959542857142857 -0.1589142857142857 -2.332302857142857 -0.5238857142857142 -3.683451428571429 -1.1146628571428572 -0.42507085714285714 -0.18586285714285714 -0.7170445714285714 -0.5863028571428571 -0.764016 -1.0478571428571428 -0.3466234285714285 -3.405925714285714 0.07741714285714285 -6.389091428571429 1.3387628571428571 -8.977988571428572C2.9151428571428566 4.006114285714285 4.964742857142857 1.9137942857142856 7.698514285714285 0.20756057142857143Zm14.254285714285713 -0.044336742857142855c-0.7076571428571429 0.05723674285714285 -1.235142857142857 0.6773967428571428 -1.1778857142857142 1.3851670285714284l0.44262857142857137 5.473083428571429c0.12617142857142857 1.559142857142857 -0.7990285714285714 2.944611428571428 -2.161028571428571 3.490217142857143V1.4734234285714285c0 -0.7100794285714286 -0.5756571428571428 -1.2857142857142856 -1.2857142857142856 -1.2857142857142856 -0.7100914285714285 0 -1.2857314285714285 0.5756348571428571 -1.2857314285714285 1.2857142857142856V10.511691428571428c-1.3619485714285713 -0.5456228571428571 -2.2871314285714286 -1.9311085714285712 -2.161028571428571 -3.490234285714285l0.44262857142857137 -5.473059428571428c0.05724 -0.7077702857142857 -0.47012571428571426 -1.3279337142857142 -1.1778857142857142 -1.3851733714285714C12.881005714285713 0.10598417142857142 12.260845714285715 0.6333428571428571 12.203605714285713 1.3411114285714285l-0.44262857142857137 5.473054285714285c-0.23578285714285713 2.9154171428571427 1.6365599999999998 5.482577142857143 4.29552 6.268817142857142v9.190217142857144c0 0.9468 0.76752 1.7142857142857142 1.7143028571428571 1.7142857142857142 0.9468 0 1.7142857142857142 -0.7674857142857142 1.7142857142857142 -1.7142857142857142V13.083c2.6590285714285713 -0.7862399999999999 4.531371428571428 -3.353382857142857 4.295485714285714 -6.2688L23.338114285714283 1.3411182857142856c-0.057257142857142854 -0.7077685714285714 -0.6774857142857142 -1.2351310285714285 -1.3853142857142857 -1.1778944571428571Z" clip-rule="evenodd" stroke-width="1.7143"></path>
  </g>
</svg>