<svg xmlns="http://www.w3.org/2000/svg" fill="#077525" viewBox="0 0 24 24" id="Store-1--Streamline-Flex" height="24" width="24">
  <desc>
    Store 1 Streamline Icon: https://streamlinehq.com
  </desc>
  <g id="store-1--store-shop-shops-stores">
    <path id="Subtract" fill="#077525" fill-rule="evenodd" d="M5.208702857142857 12.88176c1.230822857142857 0 2.400068571428571 -0.32859428571428567 3.39552 -0.9143999999999999 0.9954514285714284 0.5858057142857143 2.164697142857143 0.9143999999999999 3.395537142857143 0.9143999999999999 1.230822857142857 0 2.400068571428571 -0.32859428571428567 3.39552 -0.9143999999999999 0.9954514285714284 0.5858057142857143 2.164662857142857 0.9143999999999999 3.39552 0.9143999999999999 1.0333714285714286 0 2.0413714285714284 -0.24041142857142855 2.9398285714285715 -0.6769028571428571v7.7424c0 1.7000571428571427 -1.237542857142857 3.1112571428571427 -2.8609714285714283 3.381771428571428v-6.185828571428571c0 -0.9467142857142857 -0.7674857142857142 -1.7142342857142856 -1.7142857142857142 -1.7142342857142856h-1.7142514285714285c-0.9467657142857142 0 -1.7142857142857142 0.76752 -1.7142857142857142 1.7142342857142856v6.232628571428571h-8.028171428571428c-1.8935485714285714 0 -3.4285714285714284 -1.535142857142857 -3.4285714285714284 -3.4285714285714284V12.205474285714285c0.8982514285714285 0.43609714285714285 1.9057714285714282 0.6762857142857143 2.9386114285714284 0.6762857142857143Zm-0.053297142857142855 2.547205714285714c-0.4733828571428571 0 -0.8571428571428571 0.38376 -0.8571428571428571 0.8571428571428571v2.5713771428571426c0 0.4734857142857143 0.38376 0.8571428571428571 0.8571428571428571 0.8571428571428571h5.142857142857142c0.4734 0 0.8571428571428571 -0.3836571428571428 0.8571428571428571 -0.8571428571428571V16.28610857142857c0 -0.4733828571428571 -0.3837428571428571 -0.8571428571428571 -0.8571428571428571 -0.8571428571428571h-5.142857142857142Z" clip-rule="evenodd" stroke-width="1.7143"></path>
    <path id="Union" fill="#077525" d="M5.208702857142857 10.73856c1.3884342857142855 0 2.621142857142857 -0.6043371428571428 3.39552 -1.5386571428571427 0.7743771428571429 0.9343199999999998 2.007102857142857 1.5386571428571427 3.395537142857143 1.5386571428571427 1.3884171428571428 0 2.621142857142857 -0.6043371428571428 3.39552 -1.5386571428571427 0.7743771428571429 0.9343199999999998 2.00712 1.5386571428571427 3.39552 1.5386571428571427 2.3441142857142854 0 4.2444 -1.7226171428571428 4.2444 -3.8475942857142855 0 -1.0260171428571427 -0.8489142857142856 -4.219525714285714 -4.2444 -5.450754857142857 -5.268617142857143 -0.7383531428571428 -8.242131428571428 -0.7450577142857142 -13.582097142857142 0C1.813165714285714 2.67144 0.9642857142857142 5.864948571428571 0.9642857142857142 6.890965714285714c0 2.124977142857143 1.9002857142857144 3.8475942857142855 4.2444171428571424 3.8475942857142855Z" stroke-width="1.7143"></path>
  </g>
</svg>