<svg xmlns="http://www.w3.org/2000/svg" fill="#077525" viewBox="0 0 24 24" id="Screwdriver-Wrench--Streamline-Flex" height="24" width="24">
  <desc>
    Screwdriver Wrench Streamline Icon: https://streamlinehq.com
  </desc>
  <g id="screwdriver-wrench--tools-construction-tools-wrench-screwdriver-preferences-setting-edit-adjust">
    <path id="Union" fill="#077525" fill-rule="evenodd" d="M10.723251428571428 1.94688C11.41536 1.0313845714285714 12.426651428571427 0.389052 13.695359999999999 0.02520925714285714c0.4183885714285714 -0.11998714285714285 0.80328 0.20564674285714285 0.80328 0.6102130285714286 0 1.698132 0.23718857142857144 2.652920571428571 0.6017828571428572 3.1797205714285712 0.3325714285714286 0.48053142857142855 0.8192057142857143 0.6677485714285714 1.5771257142857142 0.6677485714285714 0.7579371428571429 0 1.244622857142857 -0.18721714285714286 1.5771942857142855 -0.6677485714285714 0.36445714285714287 -0.5268 0.6017142857142856 -1.4815885714285715 0.6017142857142856 -3.179718857142857 0 -0.3718525714285714 0.36188571428571426 -0.6571198285714285 0.7345714285714285 -0.5365354285714286 1.1962285714285714 0.38692971428571427 2.1468 1.0348234285714286 2.796 1.9367914285714287 0.6488571428571428 0.9015599999999999 0.9737142857142855 2.025034285714286 0.9737142857142855 3.32436 0 1.259982857142857 -0.3053142857142857 2.3548285714285715 -0.9161142857142857 3.242588571428571 -0.5806285714285714 0.8438571428571429 -1.418742857142857 1.4737714285714285 -2.471142857142857 1.8826971428571428 0.061028571428571425 1.2651428571428571 0.11331428571428571 4.249114285714286 0.11331428571428571 5.378708571428571 0 1.1884114285714285 -0.05777142857142857 3.796937142857143 -0.12257142857142855 4.934022857142857 -0.08571428571428572 1.5065142857142857 -1.1763428571428571 2.9564571428571425 -2.761542857142857 3.1342285714285714 -0.22213714285714284 0.025028571428571428 -0.4492457142857143 0.04011428571428571 -0.6803485714285714 0.04011428571428571 -0.23108571428571428 0 -0.4581942857142857 -0.015085714285714286 -0.6803999999999999 -0.04011428571428571 -1.5850971428571428 -0.17777142857142855 -2.6756742857142854 -1.6277142857142857 -2.761542857142857 -3.1342285714285714 -0.06481714285714286 -1.1370857142857143 -0.12248571428571428 -3.7456285714285715 -0.12246857142857143 -4.934022857142857 0 -1.1296114285714285 0.05226857142857143 -4.113548571428572 0.11329714285714285 -5.378691428571429 -1.0523657142857141 -0.4089257142857143 -1.890445714285714 -1.03884 -2.471022857142857 -1.8826971428571428 -0.6107828571428571 -0.8877599999999999 -0.9161828571428572 -1.9826228571428572 -0.9161828571428572 -3.2426057142857143 0 -1.3428 0.3469885714285714 -2.4974742857142855 1.0392342857142856 -3.4131599999999995ZM3.909377142857143 0.030430285714285712c0.4496571428571428 -0.023520137142857143 0.8487942857142857 -0.023520137142857143 1.2984342857142857 0 1.282765714285714 0.06709851428571428 2.267588571428571 1.1146011428571427 2.318297142857143 2.367581142857143 0.03102857142857143 0.7667657142857143 0.03764571428571428 1.5228514285714283 0.019799999999999998 2.2853657142857142 -0.027068571428571424 1.1562514285714285 -0.6960685714285714 2.209234285714286 -1.7016 2.7036514285714284v5.693828571428571c0.07069714285714285 0.0048 0.14165142857142857 0.009994285714285714 0.21291428571428572 0.015582857142857143 1.2739542857142856 0.09985714285714285 2.194817142857143 1.148982857142857 2.2821942857142856 2.348948571428571 0.06893142857142857 0.9466285714285714 0.13868571428571427 1.9549542857142856 0.13868571428571427 2.9926114285714283 0 0.5350285714285714 -0.018497142857142854 1.0604571428571428 -0.04573714285714285 1.5728571428571427 -0.10416 1.9594285714285713 -1.6183199999999998 3.9723428571428574 -3.8222228571428567 3.988971428571429L4.5588 24l-0.05132571428571429 -0.00017142857142857143C2.3035542857142857 23.983199999999997 0.7894028571428571 21.970285714285716 0.6852377142857143 20.01085714285714c-0.02724 -0.5124 -0.045728571428571424 -1.0378285714285715 -0.045728571428571424 -1.5728571428571427 0 -1.0376571428571426 0.069756 -2.045982857142857 0.13868742857142857 -2.9926114285714283 0.0873822857142857 -1.1999657142857143 1.0082262857142856 -2.2490914285714285 2.282197714285714 -2.348948571428571 0.07110857142857142 -0.005571428571428571 0.1419257142857143 -0.010765714285714285 0.21248571428571428 -0.015565714285714283l0 -5.693845714285715c-1.0055314285714285 -0.49441714285714283 -1.6745245714285713 -1.5473999999999999 -1.7015862857142856 -2.7036514285714284 -0.01784742857142857 -0.7625142857142856 -0.011238857142857142 -1.5186 0.019793142857142856 -2.2853657142857142C1.6417954285714285 1.1450314285714285 2.626611428571428 0.0975288 3.909377142857143 0.030430285714285712Z" clip-rule="evenodd" stroke-width="1.7143"></path>
  </g>
</svg>