<svg xmlns="http://www.w3.org/2000/svg" fill="#077525" viewBox="0 0 24 24" id="Home-2--Streamline-Flex" height="24" width="24">
  <desc>
    Home 2 Streamline Icon: https://streamlinehq.com
  </desc>
  <g id="home-2--door-entrance-home-house-roof-round-shelter">
    <path id="Subtract" fill="#077525" fill-rule="evenodd" d="M10.444662857142857 2.168125714285714c0.9193542857142858 -0.6983177142857142 2.19144 -0.698316 3.1107942857142854 0.00001714285714285714l1.1315142857142857 0.8594914285714285c3.3238285714285714 2.5247142857142855 6.171085714285714 5.621331428571429 8.408742857142856 9.144737142857142l0.36308571428571423 0.571542857142857c0.7248 1.14132 -0.09514285714285714 2.6333142857142855 -1.4471999999999998 2.6333142857142855h-1.1850857142857143c0.06857142857142857 1.5755485714285715 -0.017485714285714285 3.1559142857142857 -0.25817142857142855 4.718142857142857 -0.23897142857142856 1.5524571428571428 -1.574742857142857 2.6982857142857144 -3.145542857142857 2.6982857142857144H14.142857142857142V17.142702857142854c0 -1.1834742857142857 -0.9593828571428571 -2.142857142857143 -2.142857142857143 -2.142857142857143s-2.142857142857143 0.9593828571428571 -2.142857142857143 2.142857142857143v5.650954285714286H6.577285714285714c-1.5706799999999999 0 -2.90652 -1.1458285714285714 -3.145577142857143 -2.6982857142857144 -0.24058285714285713 -1.5622285714285713 -0.3266742857142857 -3.1425942857142855 -0.25810285714285713 -4.718142857142857h-1.185342857142857c-1.3520228571428572 0 -2.1719434285714283 -1.4920114285714285 -1.4471022857142857 -2.6333314285714287l0.3630514285714285 -0.5716457142857142C3.141857142857143 8.648914285714286 5.989268571428571 5.552365714285714 9.312994285714284 3.02772l1.1316685714285712 -0.8595942857142858Z" clip-rule="evenodd" stroke-width="1.7143"></path>
  </g>
</svg>