<svg xmlns="http://www.w3.org/2000/svg" fill="#077525" viewBox="0 0 24 24" id="Heart-Rate--Streamline-Flex" height="24" width="24">
  <desc>
    Heart Rate Streamline Icon: https://streamlinehq.com
  </desc>
  <g id="heart-rate--health-beauty-information-data-beat-pulse-monitor-heart-rate-info">
    <path id="Subtract" fill="#077525" fill-rule="evenodd" d="M0.9411428571428572 8.314285714285713C1.0148571428571427 3.3257142857142856 6.505714285714285 -1.3131428571428572 11.825142857142856 4.7382857142857135a0.46285714285714286 0.46285714285714286 0 0 0 0.6857142857142857 0c5.321142857142857 -6.051428571428571 10.812 -1.4142857142857141 10.885714285714284 3.5759999999999996 0 7.590857142857143 -9.082285714285714 13.820571428571427 -11.228571428571428 13.820571428571427 -1.6097142857142854 0 -7.11942857142857 -3.504 -9.774857142857142 -8.458285714285713a0.41142857142857137 0.41142857142857137 0 0 1 0.37371428571428567 -0.6051428571428571h2.6297142857142854a1.0714285714285714 1.0714285714285714 0 0 0 0.828 -0.39085714285714285l1.625142857142857 -1.98a0.42857142857142855 0.42857142857142855 0 0 1 0.6942857142857143 0.04457142857142857l2.8251428571428567 4.517142857142857a1.0714285714285714 1.0714285714285714 0 0 0 1.7365714285714282 0.11142857142857143l2.499428571428571 -3.0445714285714285a0.42857142857142855 0.42857142857142855 0 0 1 0.3325714285714286 -0.156h2.238857142857143a1.0714285714285714 1.0714285714285714 0 1 0 0 -2.142857142857143h-2.9485714285714284a1.0714285714285714 1.0714285714285714 0 0 0 -0.828 0.39085714285714285l-1.625142857142857 1.98a0.42857142857142855 0.42857142857142855 0 0 1 -0.6942857142857143 -0.04457142857142857L9.253714285714285 7.839428571428572a1.0714285714285714 1.0714285714285714 0 0 0 -1.7365714285714282 -0.11142857142857143L5.019428571428571 10.772571428571428a0.42857142857142855 0.42857142857142855 0 0 1 -0.3325714285714286 0.156H1.6217142857142854a0.41828571428571426 0.41828571428571426 0 0 1 -0.41142857142857137 -0.32057142857142856A10.049142857142856 10.049142857142856 0 0 1 0.9428571428571428 8.314285714285713Z" clip-rule="evenodd" stroke-width="1.7143"></path>
  </g>
</svg>