<svg xmlns="http://www.w3.org/2000/svg" fill="#077525" viewBox="0 0 24 24" id="Wrench-Hand--Streamline-Flex" height="24" width="24">
  <desc>
    Wrench Hand Streamline Icon: https://streamlinehq.com
  </desc>
  <g id="wrench-hand--crescent-tool-construction-tools-wrench-setting-edit-adjust">
    <path id="Union" fill="#077525" fill-rule="evenodd" d="M15.67542857142857 1.0114285714285713C14.633142857142856 0.8485714285714285 13.681714285714285 0.9737142857142855 12.881142857142857 1.4108571428571428c-0.8057142857142856 0.4371428571428571 -1.4194285714285713 1.1657142857142857 -1.829142857142857 2.1394285714285712 -0.3771428571428571 0.8931428571428571 -0.48685714285714277 1.7657142857142856 -0.30857142857142855 2.5868571428571427 0.13542857142857143 0.6342857142857142 0.4371428571428571 1.2137142857142855 0.888 1.7314285714285713 0.11828571428571429 0.13714285714285715 0.15257142857142855 0.3257142857142857 0.07542857142857141 0.4902857142857142 -0.09257142857142857 0.19885714285714284 -0.1834285714285714 0.3994285714285714 -0.2742857142857143 0.6017142857142856a0.4491428571428571 0.4491428571428571 0 0 0 0.054857142857142854 0.45085714285714285c0.4902857142857142 0.6634285714285714 0.816 1.4434285714285713 0.9377142857142857 2.268 0.03257142857142857 0.22285714285714286 0.2177142857142857 0.3994285714285714 0.444 0.3994285714285714h0.288c0.7028571428571427 0 1.464 0.21085714285714285 2.1599999999999997 0.5725714285714286 0.23142857142857143 0.12000000000000001 0.5245714285714286 0.03428571428571429 0.6291428571428571 -0.20571428571428568a36.38057142857143 36.38057142857143 0 0 0 0.7971428571428572 -1.9645714285714284 0.456 0.456 0 0 1 0.4045714285714285 -0.288c0.6857142857142857 -0.039428571428571424 1.3114285714285714 -0.228 1.8599999999999999 -0.5725714285714286 0.7114285714285714 -0.44571428571428573 1.26 -1.1348571428571428 1.6354285714285712 -2.0262857142857142 0.3942857142857143 -0.9342857142857143 0.4954285714285714 -1.8445714285714285 0.2845714285714286 -2.694857142857143 -0.21085714285714285 -0.852 -0.7251428571428571 -1.6011428571428572 -1.4914285714285713 -2.2285714285714286a0.42857142857142855 0.42857142857142855 0 0 0 -0.6685714285714286 0.168 10.234285714285713 10.234285714285713 0 0 1 -0.05142857142857142 0.12342857142857142c-0.13885714285714285 0.3291428571428571 -0.2742857142857143 0.6771428571428572 -0.3994285714285714 0.9977142857142856 -0.09257142857142857 0.23485714285714288 -0.17828571428571427 0.456 -0.2571428571428571 0.6445714285714286 -0.20057142857142857 0.4885714285714285 -0.3822857142857143 0.8657142857142857 -0.588 1.1331428571428572 -0.19714285714285715 0.2571428571428571 -0.39257142857142857 0.3874285714285714 -0.6222857142857142 0.42857142857142855 -0.24685714285714283 0.04114285714285714 -0.6034285714285713 -0.0034285714285714284 -1.14 -0.25199999999999995 -0.5417142857142857 -0.2502857142857143 -0.8039999999999999 -0.4834285714285714 -0.9257142857142857 -0.684 -0.11142857142857143 -0.1834285714285714 -0.13714285714285715 -0.3942857142857143 -0.072 -0.6925714285714286 0.06857142857142857 -0.3154285714285714 0.23314285714285715 -0.6857142857142857 0.46114285714285713 -1.1554285714285715l0.1474285714285714 -0.3a23.66742857142857 23.66742857142857 0 0 0 0.6805714285714286 -1.4742857142857142 0.42857142857142855 0.42857142857142855 0 0 0 -0.3257142857142857 -0.5965714285714285ZM10.030285714285714 13.688571428571429l-0.2297142857142857 0.5314285714285714 3.3565714285714283 0c0.9222857142857143 0 2.7685714285714282 0.9257142857142857 2.7685714285714282 2.7702857142857145 0 1.846285714285714 -1.8565714285714283 6.066857142857143 -3.8194285714285714 6.066857142857143 -2.0159999999999996 0 -5.794285714285714 -0.37371428571428567 -7.870285714285714 -0.6857142857142857 -0.7577142857142857 -0.11314285714285714 -1.2702857142857142 -0.7645714285714286 -1.2702857142857142 -1.5308571428571427V16.548a1.7142857142857142 1.7142857142857142 0 0 1 0.2502857142857143 -0.8914285714285715l3.2948571428571425 -5.410285714285714a1.433142857142857 1.433142857142857 0 0 1 1.4914285714285713 -0.6634285714285714A2.866285714285714 2.866285714285714 0 0 1 10.097142857142856 13.536l-0.06685714285714285 0.15257142857142855Z" clip-rule="evenodd" stroke-width="1.7143"></path>
  </g>
</svg>