<svg xmlns="http://www.w3.org/2000/svg" fill="#077525" viewBox="0 0 24 24" id="Network--Streamline-Flex" height="24" width="24">
  <desc>
    Network Streamline Icon: https://streamlinehq.com
  </desc>
  <g id="network--network-server-internet-ethernet-connection">
    <path id="Union" fill="#077525" fill-rule="evenodd" d="M12.000085714285714 0.42857142857142855c0.3722228571428571 0 0.7391657142857142 0.022597714285714283 1.099542857142857 0.06649371428571428 0.11850857142857142 0.014436 0.20713714285714285 0.11066057142857141 0.24265714285714285 0.2246348571428571 0.7056171428571428 2.2644257142857143 1.1711314285714285 4.6857171428571425 1.3723714285714286 7.1802085714285715 0.019937142857142855 0.24725142857142857 -0.1765542857142857 0.4572342857142857 -0.42461142857142853 0.4572342857142857H9.711411428571429c-0.24805714285714284 0 -0.4445485714285714 -0.20998285714285714 -0.42461142857142853 -0.4572342857142857 0.20123999999999997 -2.4944742857142854 0.6667542857142857 -4.915748571428571 1.3723542857142856 -7.180160571428571 0.03555428571428571 -0.11409942857142857 0.12428571428571428 -0.21044057142857142 0.24293142857142858 -0.22487142857142858C11.261965714285715 0.45110399999999995 11.628394285714284 0.42857142857142855 12.000085714285714 0.42857142857142855ZM9.286765714285714 10.957234285714286c-0.019937142857142855 -0.24725142857142857 0.1765542857142857 -0.4572342857142857 0.42461142857142853 -0.4572342857142857h4.578702857142857c0.24805714285714284 0 0.4445485714285714 0.20998285714285714 0.42461142857142853 0.4572342857142857 -0.20122285714285712 2.4945085714285713 -0.666702857142857 4.9158 -1.3723028571428573 7.180251428571428 -0.019748571428571428 0.06342857142857142 -0.033308571428571424 0.1272 -0.04104 0.19079999999999997 -0.0004971428571428571 0.0041142857142857136 -0.0036857142857142857 0.007371428571428571 -0.007782857142857142 0.008057142857142856 -0.004508571428571429 0.0006857142857142857 -0.00785142857142857 0.004457142857142857 -0.00785142857142857 0.009085714285714286V21c0 0.23674285714285714 0.19188 0.42857142857142855 0.42857142857142855 0.42857142857142855h2.1668742857142855c0.7100742857142858 0 1.2856971428571429 0.5756571428571428 1.2856971428571429 1.2857142857142856s-0.5756228571428571 1.2857142857142856 -1.2856971428571429 1.2857142857142856H8.118994285714285c-0.7100742857142858 0 -1.2857142857142856 -0.5756571428571428 -1.2857142857142856 -1.2857142857142856s0.5756399999999999 -1.2857142857142856 1.2857142857142856 -1.2857142857142856H10.285714285714285c0.23669142857142855 0 0.42857142857142855 -0.1918285714285714 0.42857142857142855 -0.42857142857142855v-2.6554285714285712c0 -0.0041142857142857136 -0.003017142857142857 -0.007542857142857143 -0.007062857142857143 -0.008228571428571427 -0.0037028571428571427 -0.0005142857142857142 -0.006582857142857143 -0.0034285714285714284 -0.007028571428571429 -0.007199999999999999 -0.007697142857142857 -0.06394285714285713 -0.021291428571428572 -0.12805714285714284 -0.04114285714285714 -0.19165714285714283 -0.7055828571428572 -2.264485714285714 -1.17108 -4.685759999999999 -1.372285714285714 -7.180251428571428ZM17.29817142857143 10.5c-0.22611428571428568 0 -0.4130742857142857 0.17574857142857142 -0.42987428571428565 0.40126285714285714 -0.14864571428571427 1.9968857142857142 -0.4571142857142857 3.955697142857143 -0.9162514285714285 5.839165714285714 -0.08597142857142857 0.3526971428571429 0.26888571428571423 0.6474 0.5823085714285714 0.4641428571428571 2.2458171428571427 -1.3123714285714285 3.871988571428571 -3.569914285714286 4.332959999999999 -6.227057142857142 0.043885714285714285 -0.25292571428571425 -0.156 -0.4775142857142857 -0.41279999999999994 -0.4775142857142857h-3.1563428571428567Zm-10.594902857142857 0c0.22614857142857142 0 0.41309142857142855 0.17574857142857142 0.42989142857142854 0.40126285714285714 0.14868 1.9971771428571428 0.45719999999999994 3.9562971428571427 0.9164571428571427 5.840022857142857 0.08598857142857143 0.3526628571428571 -0.2688 0.6472285714285714 -0.58224 0.4643142857142857 -2.2466742857142856 -1.3123542857142856 -3.8734799999999994 -3.570325714285714 -4.334502857142857 -6.228085714285713 -0.04386857142857143 -0.25292571428571425 0.1560342857142857 -0.4775142857142857 0.4127314285714285 -0.4775142857142857h3.1576628571428573Zm0.7642285714285714 -8.848443428571427c0.31344 -0.18307371428571428 0.6682114285714286 0.11158628571428571 0.58224 0.464232 -0.4592914285714285 1.8837428571428572 -0.7678457142857142 3.84288 -0.91656 5.840091428571428 -0.01678285714285714 0.2255142857142857 -0.20374285714285711 0.40126285714285714 -0.42987428571428565 0.40126285714285714H3.5456057142857142c-0.25669714285714285 0 -0.45659999999999995 -0.2245885714285714 -0.4127314285714285 -0.4775142857142857C3.5938971428571422 5.221834285714285 5.2207542857142855 2.9638285714285715 7.467497142857143 1.6515565714285714ZM16.534234285714287 1.6524685714285714c-0.3134228571428571 -0.18315257142857141 -0.66828 0.11149714285714285 -0.5822914285714286 0.46417714285714284 0.4591714285714285 1.8834857142857142 0.7676571428571428 3.842331428571428 0.9163371428571427 5.839234285714285 0.01678285714285714 0.2255142857142857 0.20374285714285711 0.40126285714285714 0.42989142857142854 0.40126285714285714h3.1563428571428567c0.2568 0 0.4566857142857143 -0.2245885714285714 0.41279999999999994 -0.4775142857142857 -0.4609714285714285 -2.6571771428571425 -2.087142857142857 -4.914754285714285 -4.33308 -6.22716ZM1.2857142857142856 21.428571428571427c-0.7100811428571429 0 -1.2857142857142856 0.5756571428571428 -1.2857142857142856 1.2857142857142856s0.5756331428571427 1.2857142857142856 1.2857142857142856 1.2857142857142856h2.571428571428571c0.7100742857142858 0 1.2857142857142856 -0.5756571428571428 1.2857142857142856 -1.2857142857142856s-0.5756399999999999 -1.2857142857142856 -1.2857142857142856 -1.2857142857142856H1.2857142857142856Zm17.57142857142857 1.2857142857142856c0 -0.7100571428571428 0.5756571428571428 -1.2857142857142856 1.2857142857142856 -1.2857142857142856h2.571428571428571c0.7100571428571428 0 1.2857142857142856 0.5756571428571428 1.2857142857142856 1.2857142857142856s-0.5756571428571428 1.2857142857142856 -1.2857142857142856 1.2857142857142856h-2.571428571428571c-0.7100571428571428 0 -1.2857142857142856 -0.5756571428571428 -1.2857142857142856 -1.2857142857142856Z" clip-rule="evenodd" stroke-width="1.7143"></path>
  </g>
</svg>