<svg xmlns="http://www.w3.org/2000/svg" fill="#077525" viewBox="0 0 24 24" id="Align-Text-Top--Streamline-Flex" height="24" width="24">
  <desc>
    Align Text Top Streamline Icon: https://streamlinehq.com
  </desc>
  <g id="align-text-top">
    <path id="Subtract" fill="#077525" fill-rule="evenodd" d="M6.269605714285714 0.8137474285714286C8.110491428571427 0.6085542857142857 10.031451428571428 0.42857142857142855 12 0.42857142857142855s3.889508571428571 0.17998285714285714 5.7303428571428565 0.38517599999999996c2.866285714285714 0.3194794285714286 5.169257142857143 2.6204811428571424 5.476457142857142 5.491875428571428 0.19594285714285714 1.8313714285714284 0.3646285714285714 3.739474285714286 0.3646285714285714 5.694377142857142 0 1.9548857142857141 -0.16868571428571427 3.8629885714285717 -0.3646285714285714 5.694342857142857 -0.3072 2.8714285714285714 -2.6101714285714284 5.172514285714286 -5.476457142857142 5.491885714285714C15.88950857142857 23.39142857142857 13.96854857142857 23.57142857142857 12 23.57142857142857c-1.9685485714285713 0 -3.889508571428571 -0.18 -5.7303942857142856 -0.3852C3.403405714285714 22.866857142857143 1.1004137142857142 20.565771428571427 0.7932068571428571 17.694342857142857 0.5972708571428571 15.862988571428572 0.42857142857142855 13.954885714285712 0.42857142857142855 12c0 -1.954902857142857 0.16869942857142856 -3.8630057142857144 0.36463542857142855 -5.694377142857142C1.100412 3.434228571428571 3.403405714285714 1.133226857142857 6.269605714285714 0.8137474285714286ZM17.678571428571427 6.428571428571428c0 -0.5917371428571429 -0.47965714285714284 -1.0714285714285714 -1.0714285714285714 -1.0714285714285714h-9.214285714285714c-0.5917371428571429 0 -1.0714285714285714 0.47969142857142855 -1.0714285714285714 1.0714285714285714s0.47969142857142855 1.0714285714285714 1.0714285714285714 1.0714285714285714h9.214285714285714c0.5917714285714285 0 1.0714285714285714 -0.47969142857142855 1.0714285714285714 -1.0714285714285714Zm0 4.714285714285714c0 -0.5917371428571429 -0.47965714285714284 -1.0714285714285714 -1.0714285714285714 -1.0714285714285714h-9.214285714285714c-0.5917371428571429 0 -1.0714285714285714 0.47969142857142855 -1.0714285714285714 1.0714285714285714s0.47969142857142855 1.0714285714285714 1.0714285714285714 1.0714285714285714l9.214285714285714 0c0.5917714285714285 0 1.0714285714285714 -0.47969142857142855 1.0714285714285714 -1.0714285714285714Z" clip-rule="evenodd" stroke-width="1.7143"></path>
  </g>
</svg>