<svg xmlns="http://www.w3.org/2000/svg" fill="#077525" viewBox="0 0 24 24" id="Customer-Support-7--Streamline-Flex" height="24" width="24">
  <desc>
    Customer Support 7 Streamline Icon: https://streamlinehq.com
  </desc>
  <g id="customer-support-7--customer-headphones-help-microphone-person-profile-support">
    <path id="Subtract" fill="#077525" fill-rule="evenodd" d="M6.348754285714286 0.8304239999999999c0.65448 -0.23063314285714281 1.4957657142857141 -0.46085999999999994 2.4819085714285714 -0.5868445714285714 0.24961714285714282 -0.031890857142857144 0.4656514285714285 0.16625142857142855 0.4656514285714285 0.4179051428571428V6.386022857142857c0 0.20597142857142858 -0.14723999999999998 0.38062285714285715 -0.3462342857142857 0.4337657142857142 -0.6655714285714285 0.17773714285714284 -1.252422857142857 0.49494857142857135 -1.7255657142857141 0.9680914285714285 -0.7868914285714285 0.7868742857142856 -1.142485714285714 1.88832 -1.142485714285714 3.1432285714285713 0 1.2549257142857142 0.3555942857142857 2.3563542857142856 1.142485714285714 3.1432457142857144 0.7868742857142856 0.7868742857142856 1.88832 1.1424685714285714 3.1432285714285713 1.1424685714285714 0.27852 0 0.54948 -0.017519999999999997 0.8111142857142857 -0.05336571428571429 0.13736571428571429 -0.01884 0.27648 0.023228571428571425 0.378 0.11766857142857143 1.2484114285714285 1.1616342857142856 3.1266514285714284 2.2709314285714286 5.419885714285714 2.937617142857143 0.5682857142857143 0.16525714285714285 1.1628 -0.1614857142857143 1.3278857142857141 -0.7297714285714285 0.16525714285714285 -0.5681485714285713 -0.1614857142857143 -1.1626971428571427 -0.7295999999999999 -1.3278857142857141 -1.6955314285714285 -0.4929257142857143 -3.081702857142857 -1.251222857142857 -4.0607999999999995 -2.023405714285714 -0.01997142857142857 -0.01577142857142857 -0.02124 -0.04534285714285714 -0.003257142857142857 -0.06332571428571428 0.7868914285714285 -0.7868914285714285 1.142485714285714 -1.88832 1.142485714285714 -3.1432457142857144 0 -1.2549085714285713 -0.3555942857142857 -2.3563542857142856 -1.142485714285714 -3.1432285714285713 -0.47312571428571426 -0.47314285714285714 -1.0599942857142857 -0.7903542857142857 -1.7255657142857141 -0.9680914285714285 -0.1989942857142857 -0.05314285714285714 -0.3462342857142857 -0.22777714285714282 -0.3462342857142857 -0.4337657142857142V0.6495445714285714c0 -0.24961199999999997 0.21265714285714282 -0.4469828571428572 0.46078285714285705 -0.419772 0.9813599999999999 0.10761771428571427 1.8258342857142855 0.30370285714285716 2.4859714285714287 0.5000125714285714 0.49224 0.14637942857142858 0.884502857142857 0.2936417142857143 1.1576914285714286 0.4063062857142857 0.13668 0.05636742857142857 0.24382285714285712 0.10418228571428571 0.3190285714285714 0.1390542857142857 0.03762857142857143 0.017441142857142856 0.06728571428571428 0.031656 0.08869714285714285 0.04209942857142857l0.025885714285714286 0.012774857142857143 0.0023142857142857145 0.0011914285714285714c2.285142857142857 1.1272457142857142 3.9498857142857142 3.1730228571428567 4.3916571428571425 6.344365714285714 0.03634285714285714 0.26117142857142855 0.2166857142857143 0.6614742857142857 0.5701714285714286 1.21632 0.2526857142857143 0.39663428571428566 0.5461714285714285 0.8023199999999999 0.8545714285714285 1.228457142857143l0 0.00001714285714285714c0.11074285714285714 0.15298285714285714 0.2232 0.3086057142857143 0.3365142857142857 0.4673828571428571 0.40748571428571423 0.5710285714285714 0.8321142857142857 1.1941371428571428 1.0892571428571427 1.7771314285714284 0.2370857142857143 0.5376342857142857 0.4726285714285714 1.359822857142857 -0.027257142857142858 2.072502857142857 -0.20622857142857143 0.29389714285714286 -0.4801714285714286 0.5338457142857143 -0.7985142857142856 0.6995314285714285 -0.31508571428571425 0.16386857142857142 -0.6644571428571429 0.2503542857142857 -1.0193142857142856 0.2523942857142857l-0.08245714285714285 0.002074285714285714c-0.23245714285714283 0.005845714285714285 -0.41777142857142857 0.19594285714285714 -0.41777142857142857 0.4284342857142857v1.1196c0 1.8935485714285714 -1.535142857142857 3.42852 -3.4285714285714284 3.42852h-0.8457942857142856c-0.3875142857142857 0 -0.6340457142857143 0.2328 -0.6869485714285715 0.4829142857142857 -0.00041142857142857143 0.0018857142857142857 -0.0006 0.0037714285714285714 -0.0006 0.005828571428571428v2.059885714285714c0 0.4733142857142857 -0.38376 0.8571428571428571 -0.8571428571428571 0.8571428571428571H4.739657142857143c-0.4733828571428571 0 -0.8571428571428571 -0.3838285714285714 -0.8571428571428571 -0.8571428571428571 0 -0.4141714285714286 0.0010285714285714284 -0.9217714285714285 0.0024 -1.4194285714285713 0.0034285714285714284 -1.2308571428571426 -0.2702742857142857 -2.412857142857143 -0.8816571428571428 -3.401828571428571 -0.0920742857142857 -0.14897142857142856 -0.1847142857142857 -0.29674285714285714 -0.2772857142857143 -0.4443428571428571 -0.5337085714285714 -0.8512457142857143 -1.0645354285714284 -1.69788 -1.4616051428571428 -2.7321771428571426 -0.4753782857142857 -1.2382971428571428 -0.7537628571428571 -2.715942857142857 -0.7537628571428571 -4.844742857142856 0 -4.020359999999999 1.4499394285714287 -6.9561771428571415 4.274088 -8.54080457142857l0.020331428571428573 -0.012059999999999998c0.021325714285714285 -0.012505714285714285 0.05065714285714285 -0.029398285714285714 0.08777142857142857 -0.05003828571428571 0.07419428571428571 -0.041269714285714285 0.17953714285714284 -0.09759942857142856 0.3139885714285714 -0.16386857142857142 0.2687142857142857 -0.1324422857142857 0.6549085714285714 -0.30521314285714285 1.1419714285714286 -0.476856Z" clip-rule="evenodd" stroke-width="1.7143"></path>
  </g>
</svg>