<svg xmlns="http://www.w3.org/2000/svg" fill="#077525" viewBox="0 0 24 24" id="Transfer-Truck-Time--Streamline-Flex" height="24" width="24">
  <desc>
    Transfer Truck Time Streamline Icon: https://streamlinehq.com
  </desc>
  <g id="transfer-truck-time--truck-shipping-delivery-time-waiting-delay-transfer">
    <path id="Union" fill="#077525" fill-rule="evenodd" d="M9.126548571428572 8.329799999999999c0.013079999999999998 0.20033142857142858 0.17028 0.3590742857142857 0.3695142857142857 0.38377714285714287 0.1766742857142857 0.021925714285714284 0.35024571428571427 0.04402285714285714 0.5203028571428571 0.06569142857142857l0.0009257142857142857 0.00010285714285714286 0.00029142857142857144 0.00005142857142857143 0.00010285714285714286 0 0.0008399999999999999 0.00011999999999999999 0.00001714285714285714 0 0.026091428571428568 0.0033257142857142856c1.4592514285714286 0.18581142857142857 2.6720571428571427 1.168937142857143 3.1798285714285712 2.502874285714286 0.06792 0.17844 0.23357142857142857 0.30574285714285715 0.4244914285714286 0.30574285714285715h1.5952285714285712c1.3180457142857143 0 2.585245714285714 0.5195314285714285 3.522274285714286 1.4494114285714284 0.06874285714285713 0.0683142857142857 0.13542857142857143 0.13842857142857143 0.1997142857142857 0.21022285714285713 0.13611428571428572 0.15174857142857143 0.35674285714285714 0.20528571428571427 0.5334857142857142 0.10364571428571429 1.8210857142857142 -1.0478914285714285 2.8018285714285716 -2.9984742857142854 2.8018285714285716 -5.7117257142857145 0 -4.222971428571428 -2.375485714285714 -6.598397142857142 -6.598457142857143 -6.598397142857142S9.10464 3.4200685714285712 9.10464 7.64304c0 0.23465142857142857 0.00732 0.46361142857142856 0.021908571428571427 0.68676Zm9.189222857142857 -3.283765714285714c0.42325714285714283 0.4134685714285714 0.4311428571428571 1.0918114285714284 0.017828571428571426 1.51512l-1.5442457142857142 1.5809142857142857c-0.4134685714285714 0.4233085714285714 -1.0918114285714284 0.4312971428571428 -1.51512 0.017828571428571426 -0.42332571428571425 -0.4134685714285714 -0.4312971428571428 -1.0918114285714284 -0.017828571428571426 -1.5151371428571427l1.54416 -1.5809142857142857c0.4134342857142857 -0.4233085714285714 1.0917771428571428 -0.43128 1.5152057142857143 -0.017811428571428572ZM7.018268571428571 22.07005714285714c0 1.2190285714285714 -0.6856971428571429 1.904742857142857 -1.9047085714285714 1.904742857142857s-1.9047085714285714 -0.6857142857142857 -1.9047085714285714 -1.904742857142857 0.6856971428571429 -1.904742857142857 1.9047085714285714 -1.904742857142857 1.9047085714285714 0.6857142857142857 1.9047085714285714 1.904742857142857Zm6.211371428571428 1.904742857142857c1.2190114285714284 0 1.9047085714285714 -0.6857142857142857 1.9047085714285714 -1.904742857142857s-0.6856971428571429 -1.904742857142857 -1.9047085714285714 -1.904742857142857c-1.2190285714285714 0 -1.9047257142857141 0.6857142857142857 -1.9047257142857141 1.904742857142857s0.6856971428571429 1.904742857142857 1.9047257142857141 1.904742857142857ZM1.3076177142857144 20.329371428571427c0.02987142857142857 0.29245714285714286 0.13107771428571427 0.5643428571428571 0.28597199999999995 0.7983428571428571 0.1341017142857143 -0.6090857142857142 0.41414742857142856 -1.1952 0.8982959999999999 -1.6793142857142858 0.7318457142857142 -0.7318285714285714 1.6966114285714284 -0.9973714285714285 2.6216742857142856 -0.9973714285714285s1.8898285714285714 0.26554285714285714 2.6216742857142856 0.9973714285714285c0.7318457142857142 0.7318285714285714 0.99732 1.6966285714285714 0.99732 2.621657142857143 0 0.04645714285714285 -0.0006685714285714285 0.0929142857142857 -0.0020228571428571426 0.13954285714285714l0.8821371428571428 0c-0.0013714285714285714 -0.04662857142857142 -0.00204 -0.09308571428571429 -0.00204 -0.13954285714285714 0 -0.9250285714285713 0.2654742857142857 -1.8898285714285714 0.9973371428571427 -2.621657142857143 0.7318457142857142 -0.7318285714285714 1.6966114285714284 -0.9973714285714285 2.6216742857142856 -0.9973714285714285 0.9250457142857142 0 1.8898114285714285 0.26554285714285714 2.621657142857143 0.9973714285714285 0.7318628571428571 0.7318285714285714 0.9973371428571427 1.6966285714285714 0.9973371428571427 2.621657142857143 0 0.024514285714285714 -0.00018857142857142857 0.049199999999999994 -0.0005657142857142857 0.0737142857142857 0.7171885714285714 -0.20485714285714285 1.2422742857142857 -0.8653714285714286 1.2422742857142857 -1.6484571428571428V16.559434285714286c0 -0.7492628571428571 -0.2998285714285714 -1.4678399999999998 -0.8336571428571429 -1.9976399999999999 -0.5337771428571428 -0.5298171428571429 -1.2577542857142856 -0.8274514285714285 -2.0126399999999998 -0.8274514285714285h-1.6668857142857143l-0.043782857142857144 1.8218057142857145c-0.014211428571428571 0.5915657142857143 -0.5053028571428572 1.0595999999999999 -1.0968685714285713 1.0453714285714286 -0.5915657142857143 -0.014211428571428571 -1.0595828571428572 -0.5053028571428572 -1.0453714285714286 -1.0968514285714286l0.04599428571428571 -1.9135714285714285c-0.031765714285714286 -0.3358114285714286 -0.06577714285714285 -0.6686571428571428 -0.09946285714285714 -0.998262857142857l-0.00001714285714285714 -0.00015428571428571428 -0.00001714285714285714 -0.00015428571428571428 -0.00001714285714285714 -0.00011999999999999999 -0.009685714285714285 -0.0948c-0.08406857142857142 -0.8231657142857143 -0.7332685714285714 -1.4845371428571428 -1.554102857142857 -1.589057142857143 -1.1470799999999999 -0.14607428571428568 -2.297708571428571 -0.2911542857142857 -3.4560514285714286 -0.2911542857142857 -1.1583428571428571 0 -2.3089714285714282 0.14508 -3.4560514285714286 0.2911542857142857 -0.8208342857142857 0.10452 -1.470030857142857 0.7658914285714286 -1.5541079999999998 1.589057142857143l-0.009625714285714286 0.09421714285714286c-0.12603942857142858 1.233137142857143 -0.25669714285714285 2.51148 -0.25669714285714285 3.8216400000000004 0 1.3101942857142856 0.13065942857142857 2.588537142857143 0.25670228571428566 3.821622857142857l0.009620571428571428 0.09428571428571428Z" clip-rule="evenodd" stroke-width="1.7143"></path>
  </g>
</svg>