<svg xmlns="http://www.w3.org/2000/svg" fill="#077525" viewBox="0 0 24 24" id="Give-Star--Streamline-Flex" height="24" width="24">
  <desc>
    Give Star Streamline Icon: https://streamlinehq.com
  </desc>
  <g id="give-star--reward-social-rating-media-hand-star">
    <path id="Union" fill="#077525" fill-rule="evenodd" d="M16.005222857142858 1.5743331428571428c0.5622171428571427 -1.3708782857142856 2.503577142857143 -1.3708697142857142 3.065862857142857 0l0.809142857142857 1.973141142857143 2.209885714285714 0.1937142857142857c1.4785714285714286 0.1296 2.053885714285714 1.9885371428571428 0.9070285714285714 2.930708571428571l-1.596 1.31112 0.5304 2.4562114285714283c0.31457142857142856 1.4559257142857143 -1.3023428571428572 2.55504 -2.5404 1.7270228571428572l-1.8529714285714285 -1.2391714285714286 -1.8529714285714285 1.2391714285714286c-1.238142857142857 0.8280171428571428 -2.8549714285714285 -0.27109714285714287 -2.5405028571428567 -1.7270228571428572l0.53052 -2.4562114285714283 -1.5960342857142855 -1.31112c-1.1469085714285714 -0.9421714285714284 -0.5715942857142857 -2.8011085714285713 0.9070114285714285 -2.930708571428571l2.2098342857142854 -0.1937142857142857 0.8091942857142856 -1.973141142857143ZM18.865714285714287 16.27926857142857l-4.265537142857143 1.0123885714285714 -2.49504 0.6202285714285715c-0.6195085714285714 0.1541142857142857 -1.2655885714285715 0.1678285714285714 -1.8910457142857142 0.04011428571428571l-4.342217142857143 -0.886182857142857c-0.4625485714285714 -0.09440571428571429 -0.7616914285714285 -0.5450571428571428 -0.6691028571428571 -1.0079657142857141 0.09260571428571428 -0.4629085714285714 0.5420742857142856 -0.7637999999999999 1.005342857142857 -0.6730114285714285l1.9409314285714283 0.38036571428571425 0.4171542857142857 0.07388571428571428c0.8121771428571428 0.14388 1.5869657142857143 -0.3986057142857143 1.7295942857142859 -1.2110057142857142 0.13488 -0.7681885714285714 -0.34472571428571425 -1.5106285714285712 -1.1004342857142857 -1.703502857142857l-3.9491485714285712 -1.0079314285714285c-0.8166514285714286 -0.20844 -1.6615371428571428 -0.28405714285714284 -2.50224 -0.22393714285714283l-1.5528651428571427 0.11101714285714284c-0.448524 0.032074285714285715 -0.7960165714285714 0.4052914285714285 -0.7960165714285714 0.8549657142857142V20.12742857142857c0 0.36308571428571423 0.228792 0.6867428571428571 0.5710799999999999 0.8079428571428571L6.150445714285714 22.770857142857142c2.7475714285714283 0.9726857142857143 5.7565028571428565 0.9041142857142856 8.456811428571427 -0.19302857142857144l5.5512 -2.2554857142857143c0.992742857142857 -0.40337142857142855 1.5308571428571427 -1.482 1.2560571428571428 -2.5179428571428573 -0.29588571428571425 -1.115142857142857 -1.4262857142857142 -1.7915485714285713 -2.5487999999999995 -1.5251314285714286Z" clip-rule="evenodd" stroke-width="1.7143"></path>
  </g>
</svg>